<svg width="555" height="155" viewBox="0 0 555 155" fill="none" xmlns="http://www.w3.org/2000/svg">
<path d="M263.358 41.1698C263.229 41.5894 262.841 41.8756 262.403 41.8756H253.306C252.606 41.8756 252.123 41.1737 252.372 40.5185L267.514 0.645181C267.662 0.256751 268.033 0 268.448 0H277.654C278.068 0 278.439 0.255664 278.587 0.642897L293.84 40.5162C294.091 41.1718 293.608 41.8756 292.907 41.8756H283.58C283.142 41.8756 282.755 41.5894 282.625 41.1698L280.371 33.8549C280.242 33.4353 279.854 33.1491 279.416 33.1491H266.567C266.129 33.1491 265.741 33.4353 265.612 33.8549L263.358 41.1698ZM273.021 9.6636C272.986 9.6636 272.955 9.68631 272.945 9.71959L268.623 23.8305C268.426 24.4742 268.907 25.1254 269.579 25.1254H276.463C277.135 25.1254 277.615 24.4742 277.418 23.8305L273.096 9.71959C273.086 9.68631 273.056 9.6636 273.021 9.6636Z" fill="white"/>
<path d="M307.446 40.8744C307.446 41.4274 306.998 41.8756 306.446 41.8756H297.921C297.37 41.8756 296.922 41.4274 296.922 40.8744V1.00115C296.922 0.44823 297.37 0 297.921 0H306.446C306.998 0 307.446 0.44823 307.446 1.00115V40.8744Z" fill="white"/>
<path d="M261.939 96.9388C261.939 97.4917 261.491 97.94 260.94 97.94H252.999C252.447 97.94 252 97.4917 252 96.9388V57.0655C252 56.5126 252.447 56.0644 252.999 56.0644H264.134C264.568 56.0644 264.952 56.3447 265.085 56.7584L273.438 82.7153C273.449 82.7485 273.48 82.771 273.515 82.771C273.55 82.771 273.58 82.7485 273.591 82.7153L281.944 56.7584C282.077 56.3447 282.462 56.0644 282.895 56.0644H294.03C294.582 56.0644 295.03 56.5126 295.03 57.0655V96.9388C295.03 97.4917 294.582 97.94 294.03 97.94H286.09C285.538 97.94 285.091 97.4917 285.091 96.9388V71.9447C285.091 71.9076 285.061 71.8775 285.024 71.8775C284.994 71.8775 284.968 71.897 284.959 71.9254L277.411 97.2255C277.285 97.6495 276.895 97.94 276.454 97.94H270.576C270.134 97.94 269.745 97.6495 269.618 97.2255L262.07 71.9254C262.062 71.897 262.036 71.8775 262.006 71.8775C261.969 71.8775 261.939 71.9076 261.939 71.9447V96.9388Z" fill="white"/>
<path d="M314.254 98.9356C304.373 98.9356 298.352 92.4932 298.352 83.0053C298.352 73.576 304.373 66.9579 314.429 66.9579C324.31 66.9579 330.331 73.4003 330.331 82.8296C330.331 92.3175 324.31 98.9356 314.254 98.9356ZM314.371 91.9075C318.522 91.9075 320.86 88.7449 320.86 82.9468C320.86 77.1486 318.522 73.986 314.371 73.986C310.161 73.986 307.823 77.1486 307.823 82.9468C307.823 88.7449 310.161 91.9075 314.371 91.9075Z" fill="white"/>
<path d="M370.427 67.0165C376.449 67.0165 380.015 70.8233 380.015 77.6757V96.9388C380.015 97.4917 379.568 97.94 379.016 97.94H371.544C370.992 97.94 370.544 97.4917 370.544 96.9388V80.6626C370.544 76.1529 369.609 74.6302 366.276 74.6302C363.295 74.6302 361.424 76.4458 361.424 80.6041V96.9388C361.424 97.4917 360.976 97.94 360.424 97.94H353.069C352.517 97.94 352.069 97.4917 352.069 96.9388V80.6626C352.069 76.1529 351.134 74.6302 347.802 74.6302C344.878 74.6302 342.949 76.4458 342.949 80.6041V96.9388C342.949 97.4917 342.502 97.94 341.95 97.94H334.594C334.042 97.94 333.595 97.4917 333.595 96.9388V68.9547C333.595 68.4018 334.042 67.9535 334.594 67.9535H341.95C342.502 67.9535 342.949 68.4018 342.949 68.9547V72.2133C342.949 72.2543 342.982 72.2875 343.023 72.2875C343.05 72.2875 343.074 72.2735 343.087 72.2505C344.674 69.5123 347.939 67.0165 352.42 67.0165C356.31 67.0165 359.046 69.1528 360.229 72.2215C360.245 72.2611 360.282 72.2875 360.325 72.2875C360.354 72.2875 360.383 72.2745 360.402 72.2521C362.965 69.2825 365.594 67.0165 370.427 67.0165Z" fill="white"/>
<path d="M413.977 84.0595V84.464C413.977 85.0169 413.53 85.4651 412.978 85.4651H393.462C392.91 85.4651 392.455 85.9162 392.522 86.465C392.954 89.9881 395.678 91.9075 398.894 91.9075C401.769 91.9075 403.208 90.7738 403.924 89.4846C404.125 89.1227 404.487 88.862 404.9 88.862H412.427C413.089 88.862 413.568 89.4956 413.337 90.1162C411.332 95.4939 406.486 98.9356 398.66 98.9356C388.955 98.9356 383.108 92.3175 383.108 82.9468C383.108 74.1617 388.604 66.9579 398.66 66.9579C408.833 66.9579 413.977 72.9903 413.977 84.0595ZM392.645 78.6109C392.543 79.1786 393.007 79.667 393.583 79.667H403.565C404.117 79.667 404.573 79.2167 404.51 78.6673C404.143 75.4491 401.958 73.7517 398.66 73.7517C395.434 73.7517 393.212 75.4292 392.645 78.6109Z" fill="white"/>
<path d="M436.617 67.0165C442.405 67.0165 446.322 70.8233 446.322 77.6757V96.9388C446.322 97.4917 445.875 97.94 445.323 97.94H437.967C437.416 97.94 436.968 97.4917 436.968 96.9388V80.6626C436.968 76.1529 435.39 74.6302 432.291 74.6302C428.725 74.6302 426.678 76.4458 426.678 80.6041V96.9388C426.678 97.4917 426.231 97.94 425.679 97.94H418.324C417.772 97.94 417.324 97.4917 417.324 96.9388V68.9547C417.324 68.4018 417.772 67.9535 418.324 67.9535H425.679C426.231 67.9535 426.678 68.4018 426.678 68.9547V72.2133C426.678 72.2543 426.712 72.2875 426.752 72.2875C426.779 72.2875 426.803 72.2734 426.817 72.2505C428.4 69.5123 431.321 67.0165 436.617 67.0165Z" fill="white"/>
<path d="M465.216 91.4976C465.725 91.4976 466.116 91.4778 466.572 91.4269C467.182 91.3587 467.73 91.8197 467.73 92.4349V97.0885C467.73 97.5531 467.411 97.9588 466.957 98.0519C465.292 98.3933 463.8 98.5256 462.176 98.5256C455.628 98.5256 452.822 95.5387 452.822 88.2178V75.9828C452.822 75.4298 452.374 74.9816 451.822 74.9816H449.67C449.118 74.9816 448.671 74.5334 448.671 73.9805V68.9547C448.671 68.4018 449.118 67.9535 449.67 67.9535H451.822C452.374 67.9535 452.822 67.5053 452.822 66.9524V60.5796C452.822 60.0266 453.269 59.5784 453.821 59.5784H461.177C461.729 59.5784 462.176 60.0266 462.176 60.5796V66.9524C462.176 67.5053 462.624 67.9535 463.175 67.9535H466.38C466.932 67.9535 467.379 68.4018 467.379 68.9547V73.9805C467.379 74.5334 466.932 74.9816 466.38 74.9816H463.175C462.624 74.9816 462.176 75.4298 462.176 75.9828V87.9835C462.176 91.2047 463.404 91.4976 465.216 91.4976Z" fill="white"/>
<path d="M490.662 85.2894V68.9547C490.662 68.4018 491.109 67.9535 491.661 67.9535H499.017C499.569 67.9535 500.016 68.4018 500.016 68.9547V96.9388C500.016 97.4917 499.569 97.94 499.017 97.94H491.661C491.109 97.94 490.662 97.4917 490.662 96.9388V93.6802C490.662 93.6392 490.629 93.606 490.588 93.606C490.561 93.606 490.537 93.6201 490.524 93.6431C488.94 96.3812 486.019 98.877 480.723 98.877C474.935 98.877 471.018 95.0702 471.018 88.2178V68.9547C471.018 68.4018 471.465 67.9535 472.017 67.9535H479.373C479.925 67.9535 480.372 68.4018 480.372 68.9547V85.2309C480.372 89.7406 481.951 91.2633 485.049 91.2633C488.616 91.2633 490.662 89.4477 490.662 85.2894Z" fill="white"/>
<path d="M541.412 67.0165C547.434 67.0165 551 70.8233 551 77.6757V96.9388C551 97.4917 550.553 97.94 550.001 97.94H542.528C541.976 97.94 541.529 97.4917 541.529 96.9388V80.6626C541.529 76.1529 540.593 74.6302 537.261 74.6302C534.279 74.6302 532.408 76.4458 532.408 80.6041V96.9388C532.408 97.4917 531.961 97.94 531.409 97.94H524.054C523.502 97.94 523.054 97.4917 523.054 96.9388V80.6626C523.054 76.1529 522.119 74.6302 518.786 74.6302C515.863 74.6302 513.934 76.4458 513.934 80.6041V96.9388C513.934 97.4917 513.486 97.94 512.934 97.94H505.579C505.027 97.94 504.579 97.4917 504.579 96.9388V68.9547C504.579 68.4018 505.027 67.9535 505.579 67.9535H512.934C513.486 67.9535 513.934 68.4018 513.934 68.9547V72.2133C513.934 72.2543 513.967 72.2875 514.008 72.2875C514.034 72.2875 514.059 72.2735 514.072 72.2505C515.659 69.5123 518.923 67.0165 523.405 67.0165C527.294 67.0165 530.031 69.1528 531.214 72.2215C531.229 72.2611 531.267 72.2875 531.31 72.2875C531.339 72.2875 531.367 72.2745 531.387 72.2521C533.949 69.2825 536.579 67.0165 541.412 67.0165Z" fill="white"/>
<path d="M262.524 153.003C262.524 153.556 262.076 154.004 261.524 154.004H252.999C252.447 154.004 252 153.556 252 153.003V113.13C252 112.577 252.447 112.129 252.999 112.129H272.287C280.998 112.129 286.435 116.697 286.435 125.482C286.435 134.267 280.998 138.835 272.287 138.835H263.523C262.971 138.835 262.524 139.284 262.524 139.837V153.003ZM262.524 129.225C262.524 129.778 262.971 130.226 263.523 130.226H269.832C273.456 130.226 275.678 128.996 275.678 125.482C275.678 121.968 273.456 120.738 269.832 120.738H263.523C262.971 120.738 262.524 121.186 262.524 121.739V129.225Z" fill="white"/>
<path d="M305.626 123.784C306.223 123.784 306.757 123.784 307.41 123.874C307.874 123.939 308.199 124.352 308.199 124.821V131.05C308.199 131.664 307.653 132.122 307.043 132.073C306.788 132.052 306.539 132.042 306.269 132.042C302.06 132.042 298.201 134.677 298.201 140.065V153.003C298.201 153.556 297.754 154.004 297.202 154.004H289.846C289.294 154.004 288.847 153.556 288.847 153.003V125.019C288.847 124.466 289.294 124.018 289.846 124.018H297.202C297.754 124.018 298.201 124.466 298.201 125.019V128.866C298.201 128.906 298.233 128.938 298.273 128.938C298.3 128.938 298.326 128.921 298.337 128.896C299.802 125.757 302.367 123.784 305.626 123.784Z" fill="white"/>
<path d="M324.46 155C314.579 155 308.558 148.558 308.558 139.07C308.558 129.64 314.579 123.022 324.635 123.022C334.516 123.022 340.537 129.465 340.537 138.894C340.537 148.382 334.516 155 324.46 155ZM324.577 147.972C328.728 147.972 331.066 144.809 331.066 139.011C331.066 133.213 328.728 130.05 324.577 130.05C320.367 130.05 318.029 133.213 318.029 139.011C318.029 144.809 320.367 147.972 324.577 147.972Z" fill="white"/>
<path d="M357.964 147.562C358.473 147.562 358.864 147.542 359.32 147.491C359.93 147.423 360.478 147.884 360.478 148.499V153.153C360.478 153.617 360.16 154.023 359.705 154.116C358.04 154.458 356.548 154.59 354.924 154.59C348.376 154.59 345.57 151.603 345.57 144.282V132.047C345.57 131.494 345.122 131.046 344.571 131.046H342.418C341.866 131.046 341.419 130.598 341.419 130.045V125.019C341.419 124.466 341.866 124.018 342.418 124.018H344.571C345.122 124.018 345.57 123.57 345.57 123.017V116.644C345.57 116.091 346.017 115.643 346.569 115.643H353.925C354.477 115.643 354.924 116.091 354.924 116.644V123.017C354.924 123.57 355.372 124.018 355.924 124.018H359.128C359.68 124.018 360.127 124.466 360.127 125.019V130.045C360.127 130.598 359.68 131.046 359.128 131.046H355.924C355.372 131.046 354.924 131.494 354.924 132.047V144.048C354.924 147.269 356.152 147.562 357.964 147.562Z" fill="white"/>
<path d="M377.929 155C368.049 155 362.027 148.558 362.027 139.07C362.027 129.64 368.049 123.022 378.105 123.022C387.985 123.022 394.007 129.465 394.007 138.894C394.007 148.382 387.985 155 377.929 155ZM378.046 147.972C382.197 147.972 384.536 144.809 384.536 139.011C384.536 133.213 382.197 130.05 378.046 130.05C373.837 130.05 371.498 133.213 371.498 139.011C371.498 144.809 373.837 147.972 378.046 147.972Z" fill="white"/>
<path d="M411.419 155C401.948 155 395.984 148.382 395.984 139.011C395.984 129.699 401.948 123.022 411.185 123.022C419.378 123.022 424.53 127.643 425.7 134.1C425.806 134.686 425.34 135.204 424.746 135.204H417.334C416.828 135.204 416.408 134.824 416.308 134.326C415.868 132.145 414.659 130.05 411.36 130.05C407.502 130.05 405.572 133.389 405.572 139.011C405.572 144.634 407.443 147.972 411.36 147.972C414.641 147.972 415.881 145.974 416.319 143.592C416.412 143.089 416.834 142.701 417.345 142.701H424.792C425.37 142.701 425.831 143.192 425.752 143.765C424.842 150.352 419.58 155 411.419 155Z" fill="white"/>
<path d="M443.389 155C433.508 155 427.486 148.558 427.486 139.07C427.486 129.64 433.508 123.022 443.564 123.022C453.444 123.022 459.466 129.465 459.466 138.894C459.466 148.382 453.444 155 443.389 155ZM443.506 147.972C447.656 147.972 449.995 144.809 449.995 139.011C449.995 133.213 447.656 130.05 443.506 130.05C439.296 130.05 436.958 133.213 436.958 139.011C436.958 144.809 439.296 147.972 443.506 147.972Z" fill="white"/>
<path d="M472.084 153.003C472.084 153.556 471.637 154.004 471.085 154.004H463.729C463.177 154.004 462.73 153.556 462.73 153.003V113.13C462.73 112.577 463.177 112.129 463.729 112.129H471.085C471.637 112.129 472.084 112.577 472.084 113.13V153.003Z" fill="white"/>
<path d="M489.918 154.941C480.077 154.941 475.872 150.488 475.21 145.086C475.141 144.522 475.599 144.048 476.167 144.048H482.99C483.504 144.048 483.924 144.443 484.046 144.943C484.626 147.328 486.553 148.499 489.743 148.499C492.491 148.499 493.718 147.621 493.718 145.922C493.718 143.228 490.737 142.935 486.41 141.939C481.149 140.71 475.711 138.601 475.711 132.51C475.711 126.888 480.389 123.081 488.807 123.081C497.753 123.081 501.61 127.312 502.324 132.16C502.407 132.729 501.947 133.213 501.373 133.213H494.545C494.04 133.213 493.626 132.831 493.496 132.342C493.007 130.502 491.683 129.523 488.983 129.523C486.41 129.523 485.3 130.46 485.3 131.924C485.3 133.916 487.053 134.033 491.555 135.087C497.46 136.493 503.307 138.25 503.307 145.219C503.307 151.486 498.571 154.941 489.918 154.941Z" fill="white"/>
<path d="M62.4296 2.10701C63.9704 -0.586559 67.8645 -0.581799 69.3981 2.1158L152.328 147.997C153.844 150.663 151.913 153.97 148.841 153.97H113.306C111.153 153.97 109.163 152.821 108.091 150.959L43.6166 38.9777C42.9087 37.7478 42.9061 36.2357 43.6108 35.0039L62.4296 2.10701Z" fill="white" style="mix-blend-mode:soft-light"/>
<path d="M127.573 2.10701C129.114 -0.586559 133.008 -0.581799 134.542 2.1158L217.472 147.997C218.988 150.663 217.057 153.97 213.985 153.97H178.449C176.296 153.97 174.307 152.821 173.235 150.959L108.76 38.9777C108.052 37.7478 108.05 36.2357 108.755 35.0039L127.573 2.10701Z" fill="white" style="mix-blend-mode:soft-light"/>
<path d="M177.208 0C197.999 1.55166e-05 214.854 16.8765 214.854 37.6947C214.854 51.2801 207.676 63.1859 196.911 69.8193C194.698 71.1832 191.873 70.2517 190.588 67.9945L155.365 6.07888C154.064 3.79104 156.15 0.053919 158.787 0.0468658L177.208 0Z" fill="white" style="mix-blend-mode:soft-light"/>
<path d="M29.9119 89.3262C31.0851 86.5611 35.8226 86.5612 36.9959 89.3262C39.4223 95.0457 43.0216 102.028 47.5593 106.555C52.097 111.082 59.0966 114.672 64.8298 117.092C67.6014 118.263 67.6014 122.99 64.8298 124.16C59.0966 126.581 52.097 130.17 47.5593 134.697C43.0216 139.224 39.4223 146.207 36.9959 151.926C35.8226 154.691 31.0851 154.691 29.9119 151.926C27.4855 146.207 23.8872 139.224 19.3495 134.697C14.8119 130.17 7.8122 126.581 2.079 124.16C-0.692999 122.99 -0.692999 118.263 2.079 117.092C7.8122 114.672 14.8119 111.082 19.3495 106.555C23.8872 102.028 27.4855 95.0456 29.9119 89.3262Z" fill="white" style="mix-blend-mode:soft-light"/>
<path d="M62.4296 2.10701C63.9704 -0.586559 67.8645 -0.581799 69.3981 2.1158L152.328 147.997C153.844 150.663 151.913 153.97 148.841 153.97H113.306C111.153 153.97 109.163 152.821 108.091 150.959L43.6166 38.9777C42.9087 37.7478 42.9061 36.2357 43.6108 35.0039L62.4296 2.10701Z" fill="white"/>
<path d="M127.573 2.10701C129.114 -0.586559 133.008 -0.581799 134.542 2.1158L217.472 147.997C218.988 150.663 217.057 153.97 213.985 153.97H178.449C176.296 153.97 174.307 152.821 173.235 150.959L108.76 38.9777C108.052 37.7478 108.05 36.2357 108.755 35.0039L127.573 2.10701Z" fill="white"/>
<path d="M177.208 0C197.999 1.55166e-05 214.854 16.8765 214.854 37.6947C214.854 51.2801 207.676 63.1859 196.911 69.8193C194.698 71.1832 191.873 70.2517 190.588 67.9945L155.365 6.07888C154.064 3.79104 156.15 0.053919 158.787 0.0468658L177.208 0Z" fill="white"/>
<path d="M29.9119 89.3262C31.0851 86.5611 35.8226 86.5612 36.9959 89.3262C39.4223 95.0457 43.0216 102.028 47.5593 106.555C52.097 111.082 59.0966 114.672 64.8298 117.092C67.6014 118.263 67.6014 122.99 64.8298 124.16C59.0966 126.581 52.097 130.17 47.5593 134.697C43.0216 139.224 39.4223 146.207 36.9959 151.926C35.8226 154.691 31.0851 154.691 29.9119 151.926C27.4855 146.207 23.8872 139.224 19.3495 134.697C14.8119 130.17 7.8122 126.581 2.079 124.16C-0.692999 122.99 -0.692999 118.263 2.079 117.092C7.8122 114.672 14.8119 111.082 19.3495 106.555C23.8872 102.028 27.4855 95.0456 29.9119 89.3262Z" fill="#CD8AF2"/>
</svg>
